Coordinates
version=1
nRows=6
nColumns=36
inDegrees=yes

Units are S.I. units (second, meters, Newtons, ...)
If the header above contains a line with 'inDegrees', this indicates whether rotational values are in degrees (yes) or radians (no).

endheader
time	pelvis_tilt	pelvis_list	pelvis_rotation	pelvis_tx	pelvis_ty	pelvis_tz	hip_flexion_r	hip_adduction_r	hip_rotation_r	knee_angle_r	knee_angle_r_beta	ankle_angle_r	subtalar_angle_r	mtp_angle_r	hip_flexion_l	hip_adduction_l	hip_rotation_l	knee_angle_l	knee_angle_l_beta	ankle_angle_l	subtalar_angle_l	mtp_angle_l	lumbar_extension	lumbar_bending	lumbar_rotation	arm_flex_r	arm_add_r	arm_rot_r	elbow_flex_r	pro_sup_r	arm_flex_l	arm_add_l	arm_rot_l	elbow_flex_l	pro_sup_l
      6.40000000	    -36.77707861	      1.76520432	      7.63623029	     -0.31995104	      0.67185958	     -0.47097694	     91.93490141	     -7.17613713	     -2.75922007	     87.76813139	      1.53184287	     32.33748800	    -19.50820354	     -7.49999987	     89.55706971	    -17.42359301	     -0.49184591	     73.70947999	      1.28647312	     23.24067871	      9.95521662	     -7.49999987	    -18.18549233	      2.83298932	    -10.32947698	     52.14514915	    -18.62011754	     34.10062559	    132.57532052	    107.44473619	     63.47628217	    -22.06800416	     52.11929754	    127.03298913	    110.98395273
      6.41000000	    -37.13412495	      1.77003059	      7.92991010	     -0.32190932	      0.66600828	     -0.47203538	     93.11314922	     -7.60481852	     -2.63923285	     88.85335316	      1.55078356	     32.64213492	    -19.37963491	     -7.49999987	     90.73548434	    -17.16836315	     -0.34818476	     74.69062683	      1.30359736	     23.51765505	      9.97409788	     -7.49999987	    -18.52994129	      3.05176088	    -10.65778769	     53.70858199	    -18.81254822	     35.08777899	    132.96472347	    107.55721757	     64.70935422	    -22.17362286	     52.62305346	    127.46090044	    110.95876207
      6.42000000	    -37.42835517	      1.72398883	      8.04656174	     -0.32374003	      0.66025728	     -0.47252650	     94.19414296	     -7.76921598	     -2.53917064	     89.86885687	      1.56850745	     32.97157405	    -19.20081947	     -7.49999987	     91.88630315	    -17.16316106	     -0.14007249	     75.71397519	      1.32145816	     23.70449569	     10.12633407	     -7.49999987	    -18.94345770	      3.28678155	    -10.80969231	     55.35913922	    -18.88200956	     36.20955208	    133.19986252	    107.66266857	     65.99011599	    -22.35592116	     53.15283764	    127.92291115	    110.89581544
      6.43000000	    -37.83175527	      1.76008602	      8.04690147	     -0.32556398	      0.65418740	     -0.47247061	     95.44331407	     -7.74511935	     -2.34720588	     90.92481922	      1.58693747	     33.16821894	    -19.18304997	     -7.49999987	     93.10584185	    -17.31422816	      0.00957358	     76.76409123	      1.33978614	     23.82027268	     10.29349411	     -7.49999987	    -19.20658373	      3.29664586	    -10.82381384	     56.71036993	    -18.84245557	     36.86906080	    133.44657861	    107.72930232	     67.16437043	    -22.40738221	     53.43177712	    128.26514297	    110.87037107
      6.44000000	    -38.41207857	      1.88614795	      8.02684640	     -0.32758679	      0.64794616	     -0.47250633	     96.89533941	     -7.68973830	     -2.00011779	     91.91445631	      1.60420989	     33.32864079	    -19.11650150	     -7.49999987	     94.42374370	    -17.43739932	      0.06037232	     77.74180975	      1.35685055	     24.01780264	     10.50129472	     -7.49999987	    -19.27971025	      3.21687297	    -10.86362695	     58.17738960	    -18.86016059	     37.97899477	    133.70274443	    107.82571377	     68.42292812	    -22.57471017	     54.06146871	    128.70789185	    110.87789696
      6.45000000	    -38.94431416	      2.06096663	      8.00162240	     -0.32969682	      0.64204382	     -0.47268108	     98.27145184	     -7.63020266	     -1.61644020	     92.82960541	      1.62018226	     33.45076742	    -19.04131039	     -7.49999987	     95.60703254	    -17.51288170	      0.05847189	     78.60649418	      1.37194214	     24.30260169	     10.57508496	     -7.49999987	    -19.42751360	      3.11114429	    -10.94107905	     59.76359969	    -18.84103390	     39.17159056	    133.82585955	    107.91207978	     69.77210828	    -22.72953727	     54.77757687	    129.09068239	    110.90760434
